<?xml version="1.0" encoding="UTF-8"?>
<!DOCTYPE svg PUBLIC "-//W3C//DTD SVG 1.1//EN" "http://www.w3.org/Graphics/SVG/1.1/DTD/svg11.dtd">
<!-- Creator: CorelDRAW 2020 (64 Bit) -->
<svg xmlns="http://www.w3.org/2000/svg" xml:space="preserve" width="270.933mm" height="270.933mm" version="1.1" style="shape-rendering:geometricPrecision; text-rendering:geometricPrecision; image-rendering:optimizeQuality; fill-rule:evenodd; clip-rule:evenodd"
viewBox="0 0 27093.32 27093.32"
 xmlns:xlink="http://www.w3.org/1999/xlink"
 xmlns:xodm="http://www.corel.com/coreldraw/odm/2003">
 <defs>
  <style type="text/css">
   <![CDATA[
    .fil0 {fill:none}
    .fil1 {fill:#0083AD}
   ]]>
  </style>
 </defs>
 <g id="Camada_x0020_1">
  <metadata id="CorelCorpID_0Corel-Layer"/>
  <rect class="fil0" x="-0.01" y="-0.01" width="27093.33" height="27093.33"/>
  <g id="_2270428620560">
   <path class="fil1" d="M8487.79 13958.83c76.91,51.14 182.9,80.19 265.81,131.7 87.79,54.54 167.06,98.06 221.36,169.15l1037.58 -225.36c2291.95,-418.82 5290.59,-371.47 7555.89,108.43l419.16 101.36c81.51,21.7 86.47,22.63 141.48,-19.29 159.04,-121.21 250.43,-179.72 459.86,-258.86 -36.76,-115.7 -160.79,-305.8 -227.84,-425.63l-2563 -4623.21c-208.23,-374.1 -481.4,-897.48 -694.64,-1255.25 -54.59,-91.6 -181.05,-371 -245.76,-415.94 -135.95,166.07 -276.47,277.73 -466.38,390.19 23.8,85.54 1617.33,2932.26 1664.91,3019.15l836.54 1506.64c291.9,504.71 556.93,1020.61 837.58,1510.84 -89.01,1.88 -360.71,-72.07 -465.71,-91.05 -510.47,-92.29 -991.27,-168.21 -1510.54,-216.71 -1740.26,-162.53 -3728.95,-143.53 -5450.39,124.6 -161.48,25.16 -317.12,53.45 -482.28,85.69 -134.19,26.18 -354.89,89.18 -477.18,97.65 36.9,-95.83 146.64,-274.49 203.88,-371.56 201.36,-341.48 430.42,-807.12 627.32,-1133.76l836.06 -1507.32c133.24,-259.7 280.97,-501.01 415.48,-747.9 138.58,-254.37 276.65,-507.79 420.78,-758.76 68.23,-118.8 142.35,-250.93 208.21,-373.36 77.76,-144.58 608.11,-1083.9 621.84,-1142.67 -80.84,-60.96 -123.97,-72.99 -252.67,-175.58 -88.24,-70.34 -137.97,-156.43 -223.83,-216.05l-1856.71 3345.36c-154.36,279.58 -305.36,561.95 -465.76,839.11 -164.15,283.63 -301.12,561.83 -464.97,840.51 -102.15,173.74 -913.72,1623.17 -926.08,1687.88z"/>
   <path class="fil1" d="M7598.5 14111.01c-873.69,136.86 -1436.69,933.89 -1309.34,1782.96 116.79,778.66 852.8,1457.62 1784.47,1311.66 786.67,-123.25 1443.55,-850.21 1305.99,-1791.76 -112.46,-769.67 -850.96,-1448.57 -1781.12,-1302.86zm69.14 436.07c-554.35,90.14 -1047.03,606.98 -943.37,1272.89 86.52,555.77 595.96,1046.24 1275.71,947.72 554.87,-80.41 1038.4,-608.79 942.77,-1279.81 -77.78,-545.84 -615.33,-1048.09 -1275.11,-940.8z"/>
   <path class="fil1" d="M19050.57 14105.68c-495.49,78.43 -774.46,294.03 -999.7,559.76 -245.43,289.57 -402.99,716.04 -339.67,1207.74 100.47,780.35 830.13,1460 1767.12,1333.98 773.1,-103.98 1462.48,-836.39 1331.44,-1760.04 -68.43,-482.46 -299.13,-771.25 -556.26,-1000.7 -250.17,-223.25 -738.79,-414.2 -1202.93,-340.74zm34 441.86c-323.74,60.79 -557.04,220.56 -704.06,416.06 -168.27,223.76 -285.12,507.01 -226.8,876.22 87.79,555.78 624.02,1029.92 1288.9,925.36 543.5,-85.47 1037.86,-626.04 924.97,-1284.31 -107.81,-628.65 -710.51,-1040.85 -1283.01,-933.33z"/>
   <path class="fil1" d="M13345.84 4475.87c-784.5,81.61 -1473.77,840.19 -1348.96,1761.9 105.92,782.34 834.57,1476.18 1763.94,1339.24 869.07,-128.06 1437.67,-890.74 1336.03,-1763.53 -95.11,-816.64 -843.03,-1432.07 -1751.01,-1337.61zm94.03 432.13c-656.14,84.6 -1076.33,642.53 -1008.79,1230.13 67.05,583.29 566.55,1067.42 1226.41,1005.75 579.28,-54.13 1076.03,-583.39 1005.92,-1229.6 -68.8,-634.14 -649.47,-1080.31 -1223.54,-1006.28z"/>
   <path class="fil1" d="M15404.75 19358.68c-367.54,42.01 -708.51,160.05 -872.52,514.87 -141.18,305.45 -90.77,936.98 -90.77,1318.52 0,480.02 -28.65,871.06 253.94,1139.78 441.88,420.23 1669.15,435.62 1959.37,-241.51 135.93,-317.15 85.58,-918.63 85.58,-1307.1 0,-416.35 57.26,-825.77 -242.58,-1134.7 -217.35,-223.96 -666.85,-338.55 -1093.02,-289.86zm-13.24 252.61c-329.51,42.91 -560.86,200.54 -626.07,494.36 -53.47,240.94 -23.85,815.74 -23.85,1102.15 0,371.48 -43.47,702.97 168.31,941.03 172.7,194.15 560.99,257.41 904.21,214.23 822.4,-103.49 649.86,-825.53 649.86,-1595.54 0,-506.57 77.54,-993.81 -544.32,-1137.15 -162.06,-37.36 -359.36,-41.08 -528.14,-19.08z"/>
   <path class="fil1" d="M6426.4 22584.98l544 -0.31 -1.85 -1076.64c439.53,-57.79 929.2,88.4 1285.32,-160.9 337.95,-236.57 310.16,-656.93 295.52,-1161.47 -13.67,-471.52 -250.54,-692.57 -676.54,-763.54 -201.82,-33.61 -1184.62,-25.08 -1441.58,-19.91l-4.87 3182.77zm542.3 -1585.31c1056.87,25.03 1037.83,25.16 1037.74,-546.65 -0.04,-287.02 51.97,-492.11 -249.93,-536.7 -181.37,-26.8 -593.79,-19.85 -785.24,-8.4l-2.57 1091.75z"/>
   <path class="fil1" d="M9173.84 22582.37l536.01 2.6 7.48 -1079.09c466.96,-37.3 914.87,79.5 1284.74,-161.93 327.72,-213.92 308.66,-683.16 293.59,-1158.39 -27.61,-869.64 -795.37,-783.66 -1388.78,-783.66 -190.15,0 -562.49,-21.04 -730.95,5.5l-2.09 3174.97zm543.3 -1581.22c232,-4.74 565.2,20.46 775,-11.42 311.58,-47.35 262.55,-242.93 262.56,-536.71 0.04,-571.99 21.81,-576.41 -1036.48,-546.67l-1.08 1094.8z"/>
   <path class="fil1" d="M2798.64 22572.28l627.22 4.57 213.23 -685.82 1276.41 -1.31 180.14 528.06c74,216.47 -4.83,159.29 635.06,159.34 -25.87,-123 -95.04,-282.88 -137.51,-405.1 -120.01,-345.48 -933.31,-2701.06 -985.44,-2778.43l-667.99 -1.53 -1141.12 3180.22zm1028.64 -1213.62l900.57 2.78 -445.26 -1250.86 -455.31 1248.08z"/>
   <path class="fil1" d="M22139.28 22586.35l295.99 -0.11 6.42 -2777.14 1289.34 2433.46c30.08,63.17 141.77,291.22 186.32,341.16l371.61 2.8 5.71 -3182.3 -294.1 1.23 -7 2700.24c-171.97,-261.97 -965.6,-1924.76 -1207.48,-2361.05 -62.66,-113.03 -110.14,-236.11 -177.57,-338.62l-462.91 -0.47 -6.33 3180.8z"/>
   <path class="fil1" d="M18360.97 22582.11l420.94 3.74 285.95 -787.1c91.14,-271.28 186.95,-531.52 285.66,-799.52 70.98,-192.73 554.62,-1506.68 562.69,-1593.17l-315.94 -0.18 -514.65 1420.61c-63.34,175.22 -479.83,1366.73 -523.1,1425.49l-1016.75 -2846.43 -307.93 -0.33c-3.43,87.59 709.96,2013.25 834.5,2379.73 79.56,234.14 187.58,581.44 288.63,797.16z"/>
   <polygon class="fil1" points="12140.17,22584.67 13926.59,22586.25 13931.52,22265.6 12463.3,22263.98 12463.22,19409.21 12148.09,19405.43 "/>
   <polygon class="fil1" points="20586.03,22583.98 20904.05,22585.75 20908.66,19409.38 20592.34,19405.32 "/>
  </g>
 </g>
</svg>